inDegrees=yes
name=ik_XSensDOTOutput
DataType=double
version=3
OpenSimVersion=4.4-2022-07-23-0e9fedc
endheader
time	pelvis_tilt	pelvis_list	pelvis_rotation	pelvis_tx	pelvis_ty	pelvis_tz	hip_flexion_r	hip_adduction_r	hip_rotation_r	knee_angle_r	knee_angle_r_beta	ankle_angle_r	subtalar_angle_r	mtp_angle_r	hip_flexion_l	hip_adduction_l	hip_rotation_l	knee_angle_l	knee_angle_l_beta	ankle_angle_l	subtalar_angle_l	mtp_angle_l	lumbar_extension	lumbar_bending	lumbar_rotation	arm_flex_r	arm_add_r	arm_rot_r	elbow_flex_r	pro_sup_r	wrist_flex_r	wrist_dev_r	arm_flex_l	arm_add_l	arm_rot_l	elbow_flex_l	pro_sup_l	wrist_flex_l	wrist_dev_l
2.55	7.851214442377332	-1.792597689723016	-39.86307547855571	0	0.9399999999999999	0	43.30007490610345	-10.07889715134925	0	59.2684590703814	1.034429753361653	-5.020578020395269	0	0	43.30007490610345	-10.07889715134925	0	59.2684590703814	1.034429753361653	-5.020578020395269	0	0	4.538459331776065	2.625686748876783	-39.19583540466988	-6.024451927946053	-24.57793825902706	-12.4255162475086	54.71578938357119	0.01492932024617752	0	0	0	-11.83590393124006	0	75.82575739448609	45.62531398906822	0	0
2.566666666666667	7.864852680627515	-1.799366116610678	-39.8475580179984	0	0.9399999999999999	0	43.30065937029249	-10.07880245627775	0	59.26865652381687	1.034433199574221	-5.020545804514104	0	0	43.30065937029249	-10.07880245627775	0	59.26865652381687	1.034433199574221	-5.020545804514104	0	0	4.553941018514658	2.627321993600883	-39.17755954518984	-6.261757460972973	-24.48678057896602	-12.36668675504651	53.34262251561029	0.01537002993123077	0	0	0	-11.83646121709164	0	75.82547365656946	45.62472016305563	0	0
2.583333333333333	7.877362497559466	-1.801334039674524	-39.82753838318472	0	0.9399999999999999	0	43.30121356007133	-10.07871274985854	0	59.26884377820206	1.034436467779782	-5.020515297212537	0	0	43.30121356007133	-10.07871274985854	0	59.26884377820206	1.034436467779782	-5.020515297212537	0	0	4.56546380873046	2.632198741385841	-39.15535764821424	-6.579029653208321	-24.40939893924739	-12.40288517679627	52.0900290728348	0.01605724247448678	0	0	0	-11.83698975302298	0	75.82520461574863	45.62415747396454	0	0
2.6	7.881993680256445	-1.814084998906564	-39.80541505738623	0	0.9399999999999999	0	43.30176900978434	-10.07862293236912	0	59.26903150559846	1.034439744240945	-5.02048476400057	0	0	43.30176900978434	-10.07862293236912	0	59.26903150559846	1.034439744240945	-5.02048476400057	0	0	4.577813487481311	2.623884722136078	-39.12997337237348	-6.898056570205561	-24.3624422184686	-12.41839683852614	50.81040803531381	0.01660942133622908	0	0	0	-11.83751964353639	0	75.82493496312826	45.62359393273759	0	0
2.616666666666667	7.855525305570103	-1.823284440095843	-39.7957725118493	0	0.9399999999999999	0	43.30236398573108	-10.0785267697327	0	59.26923254550984	1.034443253049327	-5.020452083389046	0	0	43.30236398573108	-10.0785267697327	0	59.26923254550984	1.034443253049327	-5.020452083389046	0	0	4.563732829247878	2.597197808483382	-39.11684554496019	-7.151853571401829	-24.26046409472175	-12.35435379396147	49.46894867511133	0.01707411498075274	0	0	0	-11.83808721305994	0	75.82464612177446	45.62299046861283	0	0
2.633333333333333	7.878000896482874	-1.826395226792963	-39.78461530814118	0	0.9399999999999999	0	43.30296740885667	-10.07842931879089	0	59.26943643914504	1.034446811664585	-5.020418976874124	0	0	43.30296740885667	-10.07842931879089	0	59.26943643914504	1.034446811664585	-5.020418976874124	0	0	4.583438776532765	2.606635606272948	-39.10335879706478	-7.38512161095002	-24.23506037819815	-12.28460294670296	48.08026721738389	0.0176517880350876	0	0	0	-11.83866290760136	0	75.82435317948953	45.62237877155248	0	0
2.65	7.847237145202834	-1.83891243141407	-39.77575404630175	0	0.9399999999999999	0	43.30357920731773	-10.07833061002438	0	59.26964318910818	1.03445042013217	-5.020385456296338	0	0	43.30357920731773	-10.07833061002438	0	59.26964318910818	1.03445042013217	-5.020385456296338	0	0	4.568225089257999	2.574692276071769	-39.0905064693487	-7.560331866875402	-24.03265019151977	-12.16181101429605	46.64382530879575	0.01851271539135413	0	0	0	-11.8392467157446	0	75.82405617111502	45.62175900972149	0	0
2.666666666666667	7.868763296288621	-1.855667684722067	-39.77076481922774	0	0.9399999999999999	0	43.30421875924259	-10.07822747690926	0	59.2698592641075	1.034454191352339	-5.02035044435419	0	0	43.30421875924259	-10.07822747690926	0	59.2698592641075	1.034454191352339	-5.02035044435419	0	0	4.595955760652535	2.572920086721671	-39.08189987677041	-7.772806616246236	-23.94941916913282	-11.99404152259996	45.28872502284989	0.01976596273241081	0	0	0	-11.8398569743288	0	75.82374568928117	45.62111133977353	0	0
2.683333333333333	7.89011698098792	-1.880355572851411	-39.76156567737925	0	0.9399999999999999	0	43.30486120604846	-10.07812398720741	0	59.27007635600794	1.034457980320781	-5.02031532633242	0	0	43.30486120604846	-10.07812398720741	0	59.27007635600794	1.034457980320781	-5.02031532633242	0	0	4.628706805606695	2.565341343821641	-39.06832222546421	-7.980591675585129	-23.86740248699058	-11.81033367690431	43.89874163733004	0.02116423834052101	0	0	0	-11.84047015090081	0	75.8234338019134	45.62046123723843	0	0
2.7	7.911364288736737	-1.896774005633856	-39.75210017851017	0	0.9399999999999999	0	43.30549776971637	-10.07802154872505	0	59.2702914894727	1.034461735108073	-5.020280579454728	0	0	43.30549776971637	-10.07802154872505	0	59.2702914894727	1.034461735108073	-5.020280579454728	0	0	4.65595216736547	2.563847829498248	-39.05538592145329	-8.200198097127092	-23.87989469809565	-11.66880682163045	42.54800365223551	0.02284385931377798	0	0	0	-11.84107784846342	0	75.82312477047087	45.61981755335906	0	0
2.716666666666667	7.949267289455823	-1.917589756675612	-39.74450303748697	0	0.9399999999999999	0	43.30609949911712	-10.07792483573889	0	59.27049491855443	1.034465285615343	-5.020247789541026	0	0	43.30609949911712	-10.07792483573889	0	59.27049491855443	1.034465285615343	-5.020247789541026	0	0	4.698566623920575	2.568847654983699	-39.04411776108643	-8.469124644627646	-23.89422663664029	-11.6067299563717	41.11739663965353	0.02427458727623409	0	0	0	-11.84165249900722	0	75.82283264977251	45.61920964868344	0	0
